<mxfile host="app.diagrams.net" agent="Mozilla/5.0 (Windows NT 10.0; Win64; x64) AppleWebKit/537.36 (KHTML, like Gecko) Chrome/138.0.0.0 Safari/537.36 Edg/138.0.0.0" version="28.0.6">
  <diagram name="Page-1" id="vkPxpt4vwZNZHDy1GmHs">
    <mxGraphModel dx="1080" dy="565" grid="1" gridSize="10" guides="1" tooltips="1" connect="1" arrows="1" fold="1" page="1" pageScale="1" pageWidth="1100" pageHeight="850" math="0" shadow="0">
      <root>
        <mxCell id="0" />
        <mxCell id="1" parent="0" />
        <mxCell id="6oTgBiBpQolxI6YuyK97-2" value="" style="rounded=0;whiteSpace=wrap;html=1;" parent="1" vertex="1">
          <mxGeometry x="400" y="80" width="440" height="670" as="geometry" />
        </mxCell>
        <mxCell id="6oTgBiBpQolxI6YuyK97-3" value="&lt;span style=&quot;font-size: 12pt; font-family: &amp;quot;Helvetica World&amp;quot;;&quot;&gt;Library Management System&amp;nbsp;&lt;/span&gt;" style="text;html=1;align=center;verticalAlign=middle;whiteSpace=wrap;rounded=0;" parent="1" vertex="1">
          <mxGeometry x="610" y="50" width="270" height="30" as="geometry" />
        </mxCell>
        <mxCell id="6oTgBiBpQolxI6YuyK97-4" value="LIBRARY OWNER" style="shape=umlActor;verticalLabelPosition=bottom;verticalAlign=top;html=1;outlineConnect=0;shadow=0;" parent="1" vertex="1">
          <mxGeometry x="960" y="260" width="70" height="140" as="geometry" />
        </mxCell>
        <mxCell id="6oTgBiBpQolxI6YuyK97-5" value="READER" style="shape=umlActor;verticalLabelPosition=bottom;verticalAlign=top;html=1;outlineConnect=0;shadow=0;" parent="1" vertex="1">
          <mxGeometry x="250" y="120" width="70" height="140" as="geometry" />
        </mxCell>
        <mxCell id="6oTgBiBpQolxI6YuyK97-6" value="&lt;p style=&quot;margin-left: 20pt; text-indent: -18pt; line-height: 16.8px;&quot; class=&quot;MsoNormal&quot;&gt;&lt;span style=&quot;font-family: &amp;quot;Helvetica World&amp;quot;;&quot;&gt;MAINTAIN BOOKS&lt;/span&gt;&lt;/p&gt;" style="ellipse;whiteSpace=wrap;html=1;" parent="1" vertex="1">
          <mxGeometry x="560" y="250" width="120" height="80" as="geometry" />
        </mxCell>
        <mxCell id="6oTgBiBpQolxI6YuyK97-7" value="&lt;p style=&quot;margin-left:20.0pt;text-indent:-18.0pt;line-height:&lt;br/&gt;140%;mso-list:l0 level1 lfo1&quot; class=&quot;MsoNormal&quot;&gt;&lt;span style=&quot;font-family:&lt;br/&gt;Symbol;mso-fareast-font-family:Symbol;mso-bidi-font-family:Symbol&quot;&gt;&lt;span style=&quot;font-variant-numeric: normal; font-variant-east-asian: normal; font-variant-alternates: normal; font-size-adjust: none; font-kerning: auto; font-optical-sizing: auto; font-feature-settings: normal; font-variation-settings: normal; font-variant-position: normal; font-variant-emoji: normal; font-stretch: normal; font-size: 7pt; line-height: normal; font-family: &amp;quot;Times New Roman&amp;quot;;&quot;&gt;&amp;nbsp;&lt;/span&gt;&lt;/span&gt;&lt;span style=&quot;font-family: &amp;quot;Helvetica World&amp;quot;;&quot;&gt;MAINTAIN AUTHOR&lt;/span&gt;&lt;/p&gt;" style="ellipse;whiteSpace=wrap;html=1;" parent="1" vertex="1">
          <mxGeometry x="560" y="110" width="120" height="80" as="geometry" />
        </mxCell>
        <mxCell id="6oTgBiBpQolxI6YuyK97-8" value="&lt;span style=&quot;text-indent: -24px; font-family: &amp;quot;Helvetica World&amp;quot;;&quot;&gt;MAINTAIN READERS&amp;nbsp;&lt;/span&gt;" style="ellipse;whiteSpace=wrap;html=1;" parent="1" vertex="1">
          <mxGeometry x="560" y="370" width="120" height="80" as="geometry" />
        </mxCell>
        <mxCell id="6oTgBiBpQolxI6YuyK97-9" value="&lt;p style=&quot;margin-left: 20pt; text-indent: -18pt; line-height: 16.8px;&quot; class=&quot;MsoNormal&quot;&gt;&lt;span style=&quot;font-family: Symbol;&quot;&gt;&lt;span style=&quot;font-variant-numeric: normal; font-variant-east-asian: normal; font-variant-alternates: normal; font-size-adjust: none; font-kerning: auto; font-optical-sizing: auto; font-feature-settings: normal; font-variation-settings: normal; font-variant-position: normal; font-variant-emoji: normal; font-stretch: normal; font-size: 7pt; line-height: normal; font-family: &amp;quot;Times New Roman&amp;quot;;&quot;&gt;&amp;nbsp;&lt;/span&gt;&lt;/span&gt;&lt;span style=&quot;font-family: &amp;quot;Helvetica World&amp;quot;;&quot;&gt;MAINTAIN EVENTS&lt;/span&gt;&lt;/p&gt;" style="ellipse;whiteSpace=wrap;html=1;" parent="1" vertex="1">
          <mxGeometry x="560" y="510" width="120" height="80" as="geometry" />
        </mxCell>
        <mxCell id="6oTgBiBpQolxI6YuyK97-10" value="ATTEND EVENT" style="ellipse;whiteSpace=wrap;html=1;" parent="1" vertex="1">
          <mxGeometry x="40" y="260" width="120" height="80" as="geometry" />
        </mxCell>
        <mxCell id="6oTgBiBpQolxI6YuyK97-11" value="" style="endArrow=classic;html=1;rounded=0;entryX=0.5;entryY=0;entryDx=0;entryDy=0;exitX=0;exitY=0.3333333333333333;exitDx=0;exitDy=0;exitPerimeter=0;endFill=1;" parent="1" source="6oTgBiBpQolxI6YuyK97-5" target="6oTgBiBpQolxI6YuyK97-10" edge="1">
          <mxGeometry width="50" height="50" relative="1" as="geometry">
            <mxPoint x="470" y="280" as="sourcePoint" />
            <mxPoint x="520" y="230" as="targetPoint" />
          </mxGeometry>
        </mxCell>
        <mxCell id="6oTgBiBpQolxI6YuyK97-12" value="REQUEST REPORTS" style="ellipse;whiteSpace=wrap;html=1;" parent="1" vertex="1">
          <mxGeometry x="685" y="640" width="120" height="80" as="geometry" />
        </mxCell>
        <mxCell id="6oTgBiBpQolxI6YuyK97-13" value="" style="endArrow=none;html=1;rounded=0;entryX=1;entryY=0.5;entryDx=0;entryDy=0;exitX=0;exitY=0.3333333333333333;exitDx=0;exitDy=0;exitPerimeter=0;endFill=0;" parent="1" source="6oTgBiBpQolxI6YuyK97-4" target="6oTgBiBpQolxI6YuyK97-12" edge="1">
          <mxGeometry width="50" height="50" relative="1" as="geometry">
            <mxPoint x="870" y="290" as="sourcePoint" />
            <mxPoint x="520" y="370" as="targetPoint" />
          </mxGeometry>
        </mxCell>
        <mxCell id="6oTgBiBpQolxI6YuyK97-15" value="" style="endArrow=classic;html=1;rounded=0;exitX=0;exitY=0.3333333333333333;exitDx=0;exitDy=0;exitPerimeter=0;entryX=1;entryY=0.5;entryDx=0;entryDy=0;" parent="1" source="6oTgBiBpQolxI6YuyK97-4" target="6oTgBiBpQolxI6YuyK97-9" edge="1">
          <mxGeometry width="50" height="50" relative="1" as="geometry">
            <mxPoint x="470" y="420" as="sourcePoint" />
            <mxPoint x="520" y="370" as="targetPoint" />
          </mxGeometry>
        </mxCell>
        <mxCell id="6oTgBiBpQolxI6YuyK97-18" value="NUMBER OF ATTENDEES" style="ellipse;whiteSpace=wrap;html=1;" parent="1" vertex="1">
          <mxGeometry x="40" y="430" width="120" height="80" as="geometry" />
        </mxCell>
        <mxCell id="6oTgBiBpQolxI6YuyK97-19" value="" style="endArrow=none;html=1;rounded=0;entryX=0.5;entryY=0;entryDx=0;entryDy=0;exitX=0.5;exitY=1;exitDx=0;exitDy=0;endFill=0;startArrow=classic;startFill=1;" parent="1" source="6oTgBiBpQolxI6YuyK97-10" target="6oTgBiBpQolxI6YuyK97-18" edge="1">
          <mxGeometry width="50" height="50" relative="1" as="geometry">
            <mxPoint x="470" y="280" as="sourcePoint" />
            <mxPoint x="520" y="230" as="targetPoint" />
          </mxGeometry>
        </mxCell>
        <mxCell id="6oTgBiBpQolxI6YuyK97-20" value="&amp;lt;&amp;lt;DEPENDS ON&amp;gt;&amp;gt;" style="edgeLabel;html=1;align=center;verticalAlign=middle;resizable=0;points=[];" parent="6oTgBiBpQolxI6YuyK97-19" vertex="1" connectable="0">
          <mxGeometry x="-0.3587" relative="1" as="geometry">
            <mxPoint x="10" y="21" as="offset" />
          </mxGeometry>
        </mxCell>
        <mxCell id="6oTgBiBpQolxI6YuyK97-22" value="LIBRARIAN" style="shape=umlActor;verticalLabelPosition=bottom;verticalAlign=top;html=1;outlineConnect=0;shadow=0;" parent="1" vertex="1">
          <mxGeometry x="250" y="360" width="70" height="140" as="geometry" />
        </mxCell>
        <mxCell id="6oTgBiBpQolxI6YuyK97-24" value="" style="endArrow=none;html=1;rounded=0;entryX=1;entryY=0.5;entryDx=0;entryDy=0;exitX=0;exitY=0.3333333333333333;exitDx=0;exitDy=0;exitPerimeter=0;endFill=0;" parent="1" source="6oTgBiBpQolxI6YuyK97-22" target="6oTgBiBpQolxI6YuyK97-18" edge="1">
          <mxGeometry width="50" height="50" relative="1" as="geometry">
            <mxPoint x="470" y="400" as="sourcePoint" />
            <mxPoint x="520" y="350" as="targetPoint" />
          </mxGeometry>
        </mxCell>
        <mxCell id="6oTgBiBpQolxI6YuyK97-28" value="TOP 10 EVENTS" style="ellipse;whiteSpace=wrap;html=1;" parent="1" vertex="1">
          <mxGeometry x="450" y="640" width="120" height="80" as="geometry" />
        </mxCell>
        <mxCell id="6oTgBiBpQolxI6YuyK97-29" value="" style="endArrow=classic;html=1;rounded=0;entryX=0;entryY=0.5;entryDx=0;entryDy=0;exitX=1;exitY=0.5;exitDx=0;exitDy=0;" parent="1" source="6oTgBiBpQolxI6YuyK97-28" target="6oTgBiBpQolxI6YuyK97-12" edge="1">
          <mxGeometry width="50" height="50" relative="1" as="geometry">
            <mxPoint x="470" y="380" as="sourcePoint" />
            <mxPoint x="520" y="330" as="targetPoint" />
          </mxGeometry>
        </mxCell>
        <mxCell id="6oTgBiBpQolxI6YuyK97-31" value="&amp;lt;&amp;lt;INCLUDES&amp;gt;&amp;gt;" style="edgeLabel;html=1;align=center;verticalAlign=middle;resizable=0;points=[];" parent="6oTgBiBpQolxI6YuyK97-29" vertex="1" connectable="0">
          <mxGeometry x="-0.08" y="1" relative="1" as="geometry">
            <mxPoint x="-1" as="offset" />
          </mxGeometry>
        </mxCell>
        <mxCell id="6oTgBiBpQolxI6YuyK97-32" value="" style="endArrow=classic;html=1;rounded=0;entryX=0;entryY=0.5;entryDx=0;entryDy=0;exitX=1;exitY=0.3333333333333333;exitDx=0;exitDy=0;exitPerimeter=0;" parent="1" source="6oTgBiBpQolxI6YuyK97-22" target="6oTgBiBpQolxI6YuyK97-8" edge="1">
          <mxGeometry width="50" height="50" relative="1" as="geometry">
            <mxPoint x="490" y="490" as="sourcePoint" />
            <mxPoint x="540" y="440" as="targetPoint" />
          </mxGeometry>
        </mxCell>
        <mxCell id="6oTgBiBpQolxI6YuyK97-33" value="" style="endArrow=classic;html=1;rounded=0;exitX=1;exitY=0.3333333333333333;exitDx=0;exitDy=0;exitPerimeter=0;entryX=0;entryY=0.5;entryDx=0;entryDy=0;" parent="1" source="6oTgBiBpQolxI6YuyK97-22" target="6oTgBiBpQolxI6YuyK97-7" edge="1">
          <mxGeometry width="50" height="50" relative="1" as="geometry">
            <mxPoint x="490" y="340" as="sourcePoint" />
            <mxPoint x="540" y="290" as="targetPoint" />
          </mxGeometry>
        </mxCell>
        <mxCell id="6oTgBiBpQolxI6YuyK97-37" value="" style="endArrow=none;startArrow=classic;html=1;rounded=0;entryX=0.5;entryY=1;entryDx=0;entryDy=0;exitX=0.5;exitY=0;exitDx=0;exitDy=0;startFill=1;endFill=0;" parent="1" source="6oTgBiBpQolxI6YuyK97-6" target="6oTgBiBpQolxI6YuyK97-7" edge="1">
          <mxGeometry width="50" height="50" relative="1" as="geometry">
            <mxPoint x="490" y="490" as="sourcePoint" />
            <mxPoint x="540" y="440" as="targetPoint" />
          </mxGeometry>
        </mxCell>
        <mxCell id="QepzWSpWVLUGpP6jUu0R-1" value="" style="endArrow=classic;html=1;rounded=0;exitX=1;exitY=0.3333333333333333;exitDx=0;exitDy=0;exitPerimeter=0;entryX=0;entryY=0.5;entryDx=0;entryDy=0;" edge="1" parent="1" source="6oTgBiBpQolxI6YuyK97-22" target="6oTgBiBpQolxI6YuyK97-6">
          <mxGeometry width="50" height="50" relative="1" as="geometry">
            <mxPoint x="640" y="460" as="sourcePoint" />
            <mxPoint x="690" y="410" as="targetPoint" />
          </mxGeometry>
        </mxCell>
        <mxCell id="QepzWSpWVLUGpP6jUu0R-3" value="" style="endArrow=classic;html=1;rounded=0;entryX=0.5;entryY=0;entryDx=0;entryDy=0;exitX=0.5;exitY=1;exitDx=0;exitDy=0;" edge="1" parent="1" source="6oTgBiBpQolxI6YuyK97-8" target="6oTgBiBpQolxI6YuyK97-9">
          <mxGeometry width="50" height="50" relative="1" as="geometry">
            <mxPoint x="620" y="470" as="sourcePoint" />
            <mxPoint x="620" y="490" as="targetPoint" />
          </mxGeometry>
        </mxCell>
        <mxCell id="QepzWSpWVLUGpP6jUu0R-4" value="" style="endArrow=none;html=1;rounded=1;entryX=0.5;entryY=0;entryDx=0;entryDy=0;exitX=0;exitY=0.5;exitDx=0;exitDy=0;endFill=0;startArrow=classic;startFill=1;curved=0;" edge="1" parent="1" source="6oTgBiBpQolxI6YuyK97-9" target="6oTgBiBpQolxI6YuyK97-28">
          <mxGeometry width="50" height="50" relative="1" as="geometry">
            <mxPoint x="540" y="560" as="sourcePoint" />
            <mxPoint x="590" y="510" as="targetPoint" />
            <Array as="points">
              <mxPoint x="510" y="550" />
            </Array>
          </mxGeometry>
        </mxCell>
        <mxCell id="QepzWSpWVLUGpP6jUu0R-5" value="&amp;lt;&amp;lt;DEPENDS ON&amp;gt;&amp;gt;" style="edgeLabel;html=1;align=center;verticalAlign=middle;resizable=0;points=[];" vertex="1" connectable="0" parent="QepzWSpWVLUGpP6jUu0R-4">
          <mxGeometry x="0.4286" y="1" relative="1" as="geometry">
            <mxPoint as="offset" />
          </mxGeometry>
        </mxCell>
        <mxCell id="QepzWSpWVLUGpP6jUu0R-6" value="AUTHOR" style="shape=umlActor;verticalLabelPosition=bottom;verticalAlign=top;html=1;outlineConnect=0;shadow=0;" vertex="1" parent="1">
          <mxGeometry x="110" y="600" width="70" height="140" as="geometry" />
        </mxCell>
        <mxCell id="QepzWSpWVLUGpP6jUu0R-9" value="" style="endArrow=none;html=1;rounded=0;exitX=0;exitY=0.3333333333333333;exitDx=0;exitDy=0;exitPerimeter=0;entryX=1;entryY=0.3333333333333333;entryDx=0;entryDy=0;entryPerimeter=0;" edge="1" parent="1" source="6oTgBiBpQolxI6YuyK97-22" target="QepzWSpWVLUGpP6jUu0R-6">
          <mxGeometry width="50" height="50" relative="1" as="geometry">
            <mxPoint x="480" y="490" as="sourcePoint" />
            <mxPoint x="530" y="440" as="targetPoint" />
          </mxGeometry>
        </mxCell>
      </root>
    </mxGraphModel>
  </diagram>
</mxfile>
